<svg xmlns="http://www.w3.org/2000/svg" xmlns:xlink="http://www.w3.org/1999/xlink" width="1326.069" height="1215.646" viewBox="0 0 1326.069 1215.646">
  <defs>
    <linearGradient id="linear-gradient" x1="-0.061" y1="-0.831" x2="0.464" y2="0.806" gradientUnits="objectBoundingBox">
      <stop offset="0" stop-color="#e0fff3"/>
      <stop offset="1" stop-color="#e0fff3"/>
    </linearGradient>
  </defs>
  <path id="left-image" d="M28.96,98.05V1313.7H369.84c16.268-15.272,32.057-30.114,47.1-43.708,25.376-23.016,48.594-42.46,68.428-54.377,5.6-3.355,11-6.5,16.238-9.335,92.9-51.15,135.417-28.737,270.984,11.271,143.266,42.331,151.835-81.264,306.007-128.8,152.584-47.106,273.5,144.245,275.957,148.2l.03.043.449-123.6s-.18-.344-.479-.99c-7.969-15.874-112.019-217.636-262.176-222.2C962.619,886.254,799.28,978.4,725.7,782.964c-79.063-210.021-98.177-185.715-226.974-329.1C405.1,349.628,432.036,181.9,453.7,98.05Z" transform="translate(-28.96 -98.05)" fill="url(#linear-gradient)"/>
</svg>
